<?xml version="1.0" encoding="UTF-8"?>
<!DOCTYPE svg PUBLIC "-//W3C//DTD SVG 1.1//EN" "http://www.w3.org/Graphics/SVG/1.1/DTD/svg11.dtd">
<!-- Creator: CorelDRAW X6 -->
<svg xmlns="http://www.w3.org/2000/svg" xml:space="preserve" width="41.653mm" height="31.5502mm" version="1.1" style="shape-rendering:geometricPrecision; text-rendering:geometricPrecision; image-rendering:optimizeQuality; fill-rule:evenodd; clip-rule:evenodd"
viewBox="0 0 3863 2926"
 xmlns:xlink="http://www.w3.org/1999/xlink">
 <defs>
  <style type="text/css">
   <![CDATA[
    .fil0 {fill:#FEFEFE}
   ]]>
  </style>
 </defs>
 <g id="Слой_x0020_1">
  <metadata id="CorelCorpID_0Corel-Layer"/>
  <g id="_175618880">
   <path class="fil0" d="M0 898l0 45c0,84 89,173 174,173 154,0 131,-41 229,-117 21,-16 22,-18 40,-35 18,-18 24,-19 42,-34 79,-71 170,-135 260,-192 66,-41 129,-73 201,-109 744,-373 1642,-278 2301,198 99,71 146,121 208,169 99,75 79,120 234,120 84,0 174,-89 174,-173 0,-135 -38,-152 -142,-251l-195 -160c-339,-254 -830,-473 -1263,-509 -353,-30 -303,-31 -656,-1 -451,39 -1038,293 -1364,583 -78,70 -243,186 -243,293z"/>
   <path class="fil0" d="M641 1539l0 45c0,84 90,174 174,174 159,0 151,-56 259,-141 37,-28 68,-48 105,-76 102,-77 247,-136 368,-175 271,-86 643,-70 897,45 22,9 40,20 62,29 90,36 202,116 278,174 108,82 102,144 264,144 84,0 173,-90 173,-174 0,-96 -5,-115 -81,-190 -39,-39 -78,-71 -121,-106l-201 -138c-27,-16 -49,-30 -77,-44 -99,-50 -210,-100 -330,-130 -343,-86 -610,-89 -953,-1 -154,39 -273,96 -404,169 -100,56 -249,167 -328,246 -36,36 -85,81 -85,149z"/>
   <path class="fil0" d="M1215 2120c0,211 202,264 323,172 111,-83 198,-171 393,-171 103,0 226,41 311,103 73,54 147,155 288,95 119,-52 153,-195 82,-299 -76,-110 -302,-232 -436,-265 -265,-67 -549,-28 -773,131 -72,52 -188,134 -188,234z"/>
   <path class="fil0" d="M1713 2701c0,94 50,169 127,205 83,39 181,19 244,-45 88,-88 87,-216 8,-306 -120,-135 -379,-56 -379,146z"/>
  </g>
 </g>
</svg>
