<svg width="30" height="30" viewBox="0 0 30 30" fill="none" xmlns="http://www.w3.org/2000/svg">
<g clip-path="url(#clip0)">
<path d="M4.39502 30.0004H14.1802V19.3364H10.6646V15.8207H14.1802V11.4262C14.1802 9.00304 16.1515 7.03168 18.5747 7.03168H22.9692V10.5473H19.4536C18.4843 10.5473 17.6958 11.3358 17.6958 12.3051V15.8207H22.8106L22.2247 19.3364H17.6958V30.0004H25.606C28.0291 30.0004 30.0005 28.0291 30.0005 25.6059V4.39496C30.0005 1.97179 28.0291 0.000427246 25.606 0.000427246H4.39502C1.97185 0.000427246 0.000488281 1.97179 0.000488281 4.39496V25.6059C0.000488281 28.0291 1.97185 30.0004 4.39502 30.0004ZM1.7583 4.39496C1.7583 2.9411 2.94116 1.75824 4.39502 1.75824H25.606C27.0598 1.75824 28.2427 2.9411 28.2427 4.39496V25.6059C28.2427 27.0598 27.0598 28.2426 25.606 28.2426H19.4536V21.0942H23.7138L24.8857 14.0629H19.4536V12.3051H24.7271V5.27386H18.5747C15.1822 5.27386 12.4224 8.03372 12.4224 11.4262V14.0629H8.90674V21.0942H12.4224V28.2426H4.39502C2.94116 28.2426 1.7583 27.0598 1.7583 25.6059V4.39496Z" fill="black"/>
</g>
<defs>
<clipPath id="clip0">
<rect width="30" height="30" fill="white" transform="translate(0.000488281 0.000427246)"/>
</clipPath>
</defs>
</svg>
