<svg width="50" height="201" viewBox="0 0 50 201" fill="none" xmlns="http://www.w3.org/2000/svg">
<g opacity="0.6">
<path d="M0 97.6826L24.6169 73.0657L49.2338 97.6826L32.0148 115.089L24.6169 108.562L17.4366 115.089L0 97.6826Z" fill="#435465"/>
<path d="M5.00614 63.6201L16.2961 51.9052L24.2853 59.4759L32.2275 52.026L43.6295 63.913L32.407 75.6954L24.3457 67.4415L16.4757 75.5746L5.00614 63.6201Z" fill="#432132"/>
<path d="M4.79048 135.665L24.8381 115.618L44.8858 135.665L24.8381 155.713L4.79048 135.665Z" fill="#432132"/>
<path d="M17.5512 193.78L24.3308 187L31.1103 193.78L24.3308 200.559L17.5512 193.78Z" fill="#432132"/>
<path d="M18 6.77954L24.7796 -2.35659e-05L31.5591 6.77954L24.7796 13.5591L18 6.77954Z" fill="#BA9898"/>
<path d="M8.55119 164.129L17.903 155.071L24.7458 161.686L31.5887 155.071L40.8085 164.129L24.6799 180.257L8.55119 164.129Z" fill="#778798"/>
<rect x="19.2983" y="49.6901" width="7.3481" height="7.3481" transform="rotate(-45 19.2983 49.6901)" fill="#432132"/>
<path d="M4 38.2469L25.3388 17.0919L45.4865 37.4306L34.4932 48.1528L24.9089 38.9414L14.5797 48.5446L4 38.2469Z" fill="#BACBDC"/>
</g>
</svg>
