<svg width="11" height="12" viewBox="0 0 11 12" fill="none" xmlns="http://www.w3.org/2000/svg">
<path d="M2.48746 4.32092L2.13588 4.67381L2.48746 5.02671L6.26717 8.82055L6.62139 9.17608L6.9756 8.82055L8.09354 7.69843C8.25637 7.53499 8.53435 7.50186 8.78244 7.71167L10.3663 9.30146C10.5269 9.46261 10.5617 9.73652 10.3657 9.98275L10.0803 10.2215L10.0629 10.2361L10.0469 10.2521C9.41309 10.8883 8.42406 10.97 7.1677 10.5022C5.92361 10.0388 4.55693 9.0767 3.37604 7.88815C2.19512 6.69957 1.24154 5.32639 0.787019 4.07707C0.328434 2.81656 0.416664 1.8215 1.06368 1.18221L1.06369 1.18222L1.06647 1.17943L1.33264 0.912263C1.50988 0.734364 1.83111 0.734365 2.00834 0.912263L3.6054 2.51529C3.78367 2.69422 3.78367 3.01987 3.6054 3.1988L2.48746 4.32092Z" fill="white" stroke="white"/>
</svg>
