<svg width="30" height="30" viewBox="0 0 30 30" fill="none" xmlns="http://www.w3.org/2000/svg">
<g clip-path="url(#clip0)">
<path d="M4.39502 30.0004H25.606C28.0291 30.0004 30.0005 28.0291 30.0005 25.6059V4.39496C30.0005 1.97179 28.0291 0.000427246 25.606 0.000427246H4.39502C1.97185 0.000427246 0.000488281 1.97179 0.000488281 4.39496V25.6059C0.000488281 28.0291 1.97185 30.0004 4.39502 30.0004ZM1.7583 4.39496C1.7583 2.9411 2.94116 1.75824 4.39502 1.75824H25.606C27.0598 1.75824 28.2427 2.9411 28.2427 4.39496V25.6059C28.2427 27.0598 27.0598 28.2426 25.606 28.2426H4.39502C2.94116 28.2426 1.7583 27.0598 1.7583 25.6059V4.39496Z" fill="black"/>
<path d="M15.0005 22.9106C19.3621 22.9106 22.9106 19.362 22.9106 15.0004C22.9106 10.6389 19.3621 7.09027 15.0005 7.09027C10.6389 7.09027 7.09033 10.6389 7.09033 15.0004C7.09033 19.362 10.6389 22.9106 15.0005 22.9106ZM15.0005 8.84808C18.393 8.84808 21.1528 11.6079 21.1528 15.0004C21.1528 18.3929 18.393 21.1528 15.0005 21.1528C11.608 21.1528 8.84814 18.3929 8.84814 15.0004C8.84814 11.6079 11.608 8.84808 15.0005 8.84808Z" fill="black"/>
<path d="M23.7896 8.84808C25.2434 8.84808 26.4263 7.66522 26.4263 6.21136C26.4263 4.75751 25.2434 3.57465 23.7896 3.57465C22.3357 3.57465 21.1528 4.75751 21.1528 6.21136C21.1528 7.66522 22.3357 8.84808 23.7896 8.84808ZM23.7896 5.33246C24.2741 5.33246 24.6685 5.72682 24.6685 6.21136C24.6685 6.69591 24.2741 7.09027 23.7896 7.09027C23.305 7.09027 22.9106 6.69591 22.9106 6.21136C22.9106 5.72682 23.305 5.33246 23.7896 5.33246Z" fill="black"/>
</g>
<defs>
<clipPath id="clip0">
<rect width="30" height="30" fill="white" transform="translate(0.000488281 0.000427246)"/>
</clipPath>
</defs>
</svg>
