<svg width="39" height="39" viewBox="0 0 39 39" fill="none" xmlns="http://www.w3.org/2000/svg">
<g clip-path="url(#clip0)">
<path d="M34.715 23.3623L34.6939 23.3427C34.3609 23.0347 33.3409 22.0401 32.997 21.6055C32.5932 21.0632 32.6863 20.7078 32.9889 20.1753C33.3713 19.5025 34.1375 18.4703 34.9483 17.3774C37.5453 13.878 39.2219 11.4554 38.8768 9.73457L38.6908 8.81544L29.1 8.81962C29.0664 8.91025 28.5659 11.1131 26.4539 14.8642C24.9224 17.584 23.9179 18.4384 23.5641 18.5893L23.5094 18.5726C23.3942 18.4301 23.1931 18.0455 23.1104 17.0542C23.0241 16.0158 23.1005 14.7586 23.1746 13.5429C23.2612 12.1172 23.3359 10.8859 23.1571 10.005L22.8658 8.56979C22.5138 8.51344 21.2251 8.01527 17.6346 7.9774C14.5261 7.9455 13.613 8.39538 13.1646 8.79189L11.6813 10.1034L13.5561 10.7354C14.2696 10.976 14.5065 11.2535 14.7008 12.6294C14.8275 13.5262 14.8939 15.0332 14.757 16.3787C14.5604 18.3079 14.0887 18.6668 14.0643 18.6859C13.9831 18.6582 13.2943 18.3562 12.0984 15.823C11.2689 14.0661 10.5417 11.9878 10.0103 10.4704C9.40208 8.73256 9.51158 9.10254 9.20302 8.28149L-0.0756836 8.2812L0.524766 9.83743C3.02803 16.3316 5.32479 21.403 8.39845 25.0456C11.7944 29.07 16.0148 31.1772 21.6997 31.1772H22.8423V30.0324C22.8423 28.9621 22.9306 28.1914 23.1202 27.6071C23.2359 27.2511 23.3898 26.9569 23.5513 26.6483C23.7911 26.194 24.0256 25.9993 24.1536 25.9704C24.2696 25.9438 24.4737 26.0291 24.6999 26.1981C25.3491 26.6832 25.8645 27.3206 26.4102 27.9955C27.1975 28.9695 28.0116 29.9763 29.3032 30.6355C30.009 30.9956 31.3027 31.1775 32.0148 31.1775C32.2031 31.1775 38.9161 31.1772 38.9244 31.1772L38.8753 29.9853C38.8021 28.203 37.4021 25.9745 34.715 23.3623ZM32.0591 28.8875H32.0406C31.5497 28.8956 30.6127 28.7343 30.3402 28.5954C29.4814 28.1571 28.8813 27.4145 28.1859 26.5547C27.5756 25.7995 26.9446 25.0187 26.0659 24.3626C25.3554 23.8316 24.71 23.6763 24.1976 23.6763C23.9929 23.6763 23.809 23.701 23.6513 23.7368C23.0565 23.8709 22.2058 24.2996 21.5295 25.5813C21.3388 25.9459 21.1225 26.3588 20.9472 26.899C20.7636 27.4643 20.6494 28.0924 20.5949 28.8565C16.3108 28.6127 12.9679 26.9145 10.1436 23.5674C7.51771 20.4553 5.45185 16.1023 3.26398 10.5699C3.42228 10.5699 7.38888 10.5705 7.62304 10.5705C7.69475 10.7724 7.77212 10.9936 7.85424 11.2279C8.42702 12.8649 9.21165 15.1066 10.1361 17.0182C11.4599 19.7556 12.6688 20.9764 14.0557 20.9764C14.7481 20.9764 15.3691 20.6825 15.8514 20.1258C16.539 19.3325 16.9383 18.0231 17.0722 16.1226C17.1779 14.6239 17.0797 13.1312 16.9636 12.3086C16.8678 11.6319 16.7313 10.9214 16.398 10.2849C17.8182 10.2208 19.7198 10.3222 20.9246 10.4954C21.0341 11.0928 20.9627 12.2672 20.8936 13.4033C20.7267 16.1479 20.5544 18.9801 22.0044 20.3053C22.2594 20.5385 22.5298 20.6634 22.5376 20.6684L23.2755 20.8953C23.5603 20.8074 25.2096 21.6457 28.3326 16.1849C29.3333 14.4352 30.2649 12.4189 30.7665 11.1021C31.93 11.0997 35.8936 11.1042 36.3592 11.1048C35.6996 12.5593 34.1363 14.634 33.1145 16.0111C32.2236 17.2113 31.4545 18.2479 31.0031 19.0421C30.1646 20.5176 30.3056 21.8326 31.1789 22.9927L31.1926 23.0105C31.68 23.6321 32.8836 24.7829 33.1332 25.0149C34.9417 26.7741 35.8132 28.0379 36.228 28.8873H32.0591V28.8875Z" fill="black"/>
</g>
<defs>
<clipPath id="clip0">
<rect width="39" height="39" fill="white" transform="translate(0.000488281 0.000366211)"/>
</clipPath>
</defs>
</svg>
